<svg xmlns="http://www.w3.org/2000/svg" xmlns:xlink="http://www.w3.org/1999/xlink" width="2000" zoomAndPan="magnify" viewBox="0 0 1500 1499.999933" height="2000" preserveAspectRatio="xMidYMid meet" version="1.0"><defs><g/></defs><g fill="#f5f21d" fill-opacity="1"><g transform="translate(160.90132, 1227.112842)"><g><path d="M 26.773438 -1023.171875 L 184.941406 -1023.171875 L 184.941406 38.464844 L 26.773438 38.464844 Z M 103.703125 -946.242188 L 103.703125 -38.464844 L 108.011719 -38.464844 L 108.011719 -946.242188 Z M 103.703125 -946.242188 "/></g></g></g><g fill="#f5f21d" fill-opacity="1"><g transform="translate(372.613154, 1227.112842)"><g><path d="M 26.773438 0 L 26.773438 -1023.171875 L 244.191406 -1023.171875 L 302.5625 -679.738281 L 394.972656 -79.707031 L 356.957031 -73.851562 L 356.957031 -112.316406 L 382.804688 -112.316406 L 382.804688 -73.851562 L 344.347656 -73.015625 L 332.039062 -637.992188 L 325.1875 -1023.171875 L 482.816406 -1023.171875 L 482.816406 38.464844 L 261.503906 38.464844 L 198.371094 -347.046875 L 115.808594 -905.226562 L 153.859375 -910.855469 L 153.859375 -872.390625 L 128.011719 -872.390625 L 128.011719 -910.855469 L 166.46875 -911.644531 L 177.546875 -372.515625 L 184.351562 38.464844 L 26.773438 38.464844 Z M 103.703125 0 L 65.238281 0 L 65.238281 -38.464844 L 145.246094 -38.464844 L 145.246094 0 L 106.785156 0.636719 L 100.632812 -370.9375 L 88.75 -949.320312 L 187.054688 -949.320312 L 274.289062 -359.480469 L 332.140625 -6.214844 L 294.179688 0 L 294.179688 -38.464844 L 444.347656 -38.464844 L 444.347656 0 L 405.882812 0 L 405.882812 -984.707031 L 444.347656 -984.707031 L 444.347656 -946.242188 L 364.34375 -946.242188 L 364.34375 -984.707031 L 402.800781 -985.390625 L 408.953125 -639.667969 L 422.117188 -35.386719 L 323.960938 -35.386719 L 226.71875 -666.847656 L 173.789062 -978.261719 L 211.710938 -984.707031 L 211.710938 -946.242188 L 65.238281 -946.242188 L 65.238281 -984.707031 L 103.703125 -984.707031 Z M 103.703125 0 "/></g></g></g><g fill="#f5f21d" fill-opacity="1"><g transform="translate(882.198698, 1227.112842)"><g><path d="M 26.773438 0 L 26.773438 -1023.171875 L 190.09375 -1023.171875 L 188.628906 -775.71875 L 176.285156 -498.03125 L 137.859375 -499.738281 L 137.859375 -538.203125 L 158.785156 -538.203125 L 158.785156 -499.738281 L 121.8125 -510.351562 L 200.757812 -785.421875 L 277.226562 -1023.171875 L 448.433594 -1023.171875 L 285.140625 -531.917969 L 248.640625 -544.050781 L 285.496094 -555.058594 L 462.746094 38.464844 L 297.289062 38.464844 L 160 -434.863281 L 196.941406 -445.582031 L 232.84375 -431.773438 L 183.609375 -303.761719 L 147.707031 -317.566406 L 186.171875 -317.566406 L 186.171875 38.464844 L 26.773438 38.464844 Z M 103.703125 0 L 65.238281 0 L 65.238281 -38.464844 L 147.707031 -38.464844 L 147.707031 0 L 109.242188 0 L 109.242188 -324.710938 L 202.054688 -566.027344 L 363.128906 -10.714844 L 326.183594 0 L 326.183594 -38.464844 L 411.117188 -38.464844 L 411.117188 0 L 374.257812 11.007812 L 208.308594 -544.671875 L 358.613281 -996.839844 L 395.113281 -984.707031 L 395.113281 -946.242188 L 305.257812 -946.242188 L 305.257812 -984.707031 L 341.878906 -972.929688 L 274.179688 -762.449219 L 237.5625 -774.226562 L 274.535156 -763.617188 L 187.761719 -461.273438 L 97.644531 -461.273438 L 111.742188 -778.394531 L 150.167969 -776.6875 L 111.703125 -776.917969 L 112.933594 -984.9375 L 151.398438 -984.707031 L 151.398438 -946.242188 L 65.238281 -946.242188 L 65.238281 -984.707031 L 103.703125 -984.707031 Z M 103.703125 0 "/></g></g></g><g fill="#fb05f7" fill-opacity="1"><g transform="translate(160.90132, 1227.112842)"><g><path d="M 65.234375 0 L 65.234375 -984.71875 L 146.46875 -984.71875 L 146.46875 0 Z M 65.234375 0 "/></g></g></g><g fill="#fb05f7" fill-opacity="1"><g transform="translate(372.613154, 1227.112842)"><g><path d="M 65.234375 0 L 65.234375 -984.71875 L 211.71875 -984.71875 L 264.640625 -673.296875 L 356.953125 -73.859375 L 382.8125 -73.859375 L 370.5 -638.828125 L 364.34375 -984.71875 L 444.34375 -984.71875 L 444.34375 0 L 294.1875 0 L 236.328125 -353.265625 L 153.859375 -910.859375 L 128.015625 -910.859375 L 139.09375 -371.734375 L 145.25 0 Z M 65.234375 0 "/></g></g></g><g fill="#fb05f7" fill-opacity="1"><g transform="translate(882.198698, 1227.112842)"><g><path d="M 65.234375 0 L 65.234375 -984.71875 L 151.40625 -984.71875 L 150.171875 -776.6875 L 137.859375 -499.734375 L 158.78125 -499.734375 L 237.5625 -774.234375 L 305.265625 -984.71875 L 395.109375 -984.71875 L 248.640625 -544.046875 L 411.125 0 L 326.1875 0 L 196.9375 -445.578125 L 147.703125 -317.5625 L 147.703125 0 Z M 65.234375 0 "/></g></g></g></svg>